<?xml version="1.0" encoding="UTF-8" standalone="no"?>
<?xml-stylesheet type="text/css" href="/styles/timer.css" ?>
<svg width="25px" height="25px" viewBox="0 0 25 25" version="1.1" xmlns="http://www.w3.org/2000/svg" xmlns:xlink="http://www.w3.org/1999/xlink" xmlns:sketch="http://www.bohemiancoding.com/sketch/ns">
    <title>timer</title>
    <description>Created with Sketch (http://www.bohemiancoding.com/sketch)</description>
    <defs></defs>
    <g id="Page-1" stroke="none" stroke-width="1" fill="none" fill-rule="evenodd" sketch:type="MSPage">
        <path d="M11.583,2.109 C5.899,2.615 1.702,7.633 2.208,13.318 C2.714,19.002 7.732,23.199 13.417,22.693 C18.3199067,22.2565343 22.1171627,18.4621943 22.7434606,13.7796203 C22.7555104,13.6895289 22.7663865,13.5991086 22.776074,13.5083771 C22.800326,13.2812374 22.8171295,13.0521474 22.8262539,12.8213829 C22.8436645,12.3810462 22.8331144,11.9346128 22.793,11.484 C22.286,5.8 17.268,1.602 11.583,2.109 Z M7.681,18.346 C4.398,15.684 3.894,10.865 6.556,7.582 C9.218,4.299 14.036,3.795 17.32,6.457 C20.604,9.119 21.106,13.937 18.445,17.22 C15.783,20.503 10.964,21.007 7.681,18.346 C7.681,18.346 10.964,21.007 7.681,18.346 L7.681,18.346 L7.681,18.346 Z M7.681,18.346" id="timer-ring" fill="#D1D3D4" sketch:type="MSShapeGroup"></path>
        <circle d="M12.5922716,7.792 C13.4206987,7.792 14.0922716,7.12042717 14.0922716,6.292 C14.0922716,5.46357283 13.4206987,4.792 12.5922716,4.792 C11.7638444,4.792 11.0922716,5.46357283 11.0922716,6.292 C11.0922716,7.12042717 11.7638444,7.792 12.5922716,7.792 Z M12.5922716,7.792" id="timer-break" fill="#ED1C24" sketch:type="MSShapeGroup" cx="12.5922716" cy="6.292" r="1.5"></circle>
        <circle d="M12.5922716,4.755 C13.3284672,4.755 13.9252716,4.15819561 13.9252716,3.422 C13.9252716,2.68580439 13.3284672,2.089 12.5922716,2.089 C11.856076,2.089 11.2592716,2.68580439 11.2592716,3.422 C11.2592716,4.15819561 11.856076,4.755 12.5922716,4.755 Z M12.5922716,4.755" id="timer-task" fill="#58595B" sketch:type="MSShapeGroup" cx="12.5922716" cy="3.422" r="1.333"></circle>
    </g>
</svg>