<?xml version="1.0" encoding="UTF-8" standalone="no"?>
<svg width="196px" height="196px" viewBox="0 0 196 196" version="1.1" xmlns="http://www.w3.org/2000/svg" xmlns:xlink="http://www.w3.org/1999/xlink" xmlns:sketch="http://www.bohemiancoding.com/sketch/ns">
    <title>tomato-trim</title>
    <description>Created with Sketch (http://www.bohemiancoding.com/sketch)</description>
    <defs></defs>
    <g id="Page-1" stroke="none" stroke-width="1" fill="none" fill-rule="evenodd" sketch:type="MSPage">
        <g id="tomato" sketch:type="MSLayerGroup" transform="translate(5.000000, 11.000000)">
            <g id="Group" sketch:type="MSShapeGroup">
                <path d="M185.802,99.202 C185.802,150.458 144.263,173.871 93,173.871 C41.745,173.871 0.198,150.458 0.198,99.202 C0.198,47.947 41.744,26.416 93,26.416 C144.263,26.417 185.802,47.947 185.802,99.202 C185.802,99.202 185.802,47.947 185.802,99.202 L185.802,99.202 L185.802,99.202 Z M185.802,99.202" id="Shape" fill="#ED1C24"></path>
                <g transform="translate(22.000000, 17.000000)" id="Shape" fill="#8CA536">
                    <path d="M71.995,8.99 C53.116,6.516 33.342,-7.543 18.842,6.957 C4.335,21.471 -1.622,41.231 0.852,60.11 C19.738,62.598 39.512,56.641 54.019,42.141 C68.52,27.642 74.476,27.869 71.995,8.99 C71.995,8.99 74.476,27.869 71.995,8.99 L71.995,8.99 L71.995,8.99 Z M71.995,8.99"></path>
                    <path d="M70.005,8.99 C67.531,27.869 73.488,27.627 87.988,42.127 C102.502,56.634 122.262,62.591 141.141,60.117 C143.628,41.231 137.672,21.457 123.171,6.95 C108.672,-7.55 88.884,6.51 70.005,8.99 C70.005,8.99 88.884,6.51 70.005,8.99 L70.005,8.99 L70.005,8.99 Z M70.005,8.99"></path>
                </g>
                <path d="M96.014,27.327 L89.986,27.327 L87.086,0.032 L98.914,0.032 L96.014,27.327 Z M96.014,27.327" id="Shape" fill="#B9D547"></path>
                <path d="M93,26.417 C77.896,38.024 68.122,36.198 68.122,56.711 C68.122,77.224 77.895,95.414 93,107.028 C108.098,95.414 117.878,77.224 117.878,56.711 C117.878,36.198 108.098,38.024 93,26.417 C93,26.417 108.098,38.024 93,26.417 L93,26.417 L93,26.417 Z M93,26.417" id="Shape" fill="#B9D547"></path>
            </g>
        </g>
    </g>
</svg>